# xmcd
#
# Track frame offsets: 
#        150
#        20550
#        31462
#        47512
#        62775
#        78937
#        92700
#        110700
#        139650
#        157725
#        176362
#        191325
#        205087
#        222937
#
# Disc length: 3323 seconds
#
# Revision: 2
# Processed by: cddbd v1.5.2PL0 Copyright (c) Steve Scherf et al.
# Submitted via: ExactAudioCopy v0.99pb5
#
DISCID=b40cf90e
DTITLE=Rod Piazza and the Mighty Flyers - Beyond The Source
DYEAR=2001
DGENRE=Blues
TTITLE0=Who Knows What's Going On?
TTITLE1=Love To Spare
TTITLE2=Twist City
TTITLE3=Shim Sham Shimmy
TTITLE4=Lovin' Daddy Blues
TTITLE5=If It Is
TTITLE6=Shakin' Hands With The Blues
TTITLE7=High Flying Baby
TTITLE8=In A Wrong World
TTITLE9=Easy Baby
TTITLE10=Reece's Boogie
TTITLE11=This Time, This Time
TTITLE12=Ghosting
TTITLE13=Miss Bee-Havin'
EXTD=
EXTT0=
EXTT1=
EXTT2=
EXTT3=
EXTT4=
EXTT5=
EXTT6=
EXTT7=
EXTT8=
EXTT9=
EXTT10=
EXTT11=
EXTT12=
EXTT13=
PLAYORDER=
